<?xml version="1.0" standalone="no"?>
<svg xmlns:xlink="http://www.w3.org/1999/xlink" id="wave" style="transform:rotate(0deg); transition: 0.3s" viewBox="0 0 1440 490" version="1.1" xmlns="http://www.w3.org/2000/svg"><defs><linearGradient id="sw-gradient-0" x1="0" x2="0" y1="1" y2="0"><stop stop-color="rgba(119, 82, 254, 0.12549019607843137)" offset="0%"/><stop stop-color="rgba(119, 82, 254, 0.3)" offset="100%"/></linearGradient></defs><path style="transform:translate(0, 0px); opacity:1" fill="url(#sw-gradient-0)" d="M0,294L60,253.2C120,212,240,131,360,114.3C480,98,600,147,720,171.5C840,196,960,196,1080,163.3C1200,131,1320,65,1440,73.5C1560,82,1680,163,1800,171.5C1920,180,2040,114,2160,73.5C2280,33,2400,16,2520,8.2C2640,0,2760,0,2880,57.2C3000,114,3120,229,3240,236.8C3360,245,3480,147,3600,163.3C3720,180,3840,310,3960,359.3C4080,408,4200,376,4320,351.2C4440,327,4560,310,4680,269.5C4800,229,4920,163,5040,187.8C5160,212,5280,327,5400,383.8C5520,441,5640,441,5760,400.2C5880,359,6000,278,6120,220.5C6240,163,6360,131,6480,138.8C6600,147,6720,196,6840,220.5C6960,245,7080,245,7200,277.7C7320,310,7440,376,7560,392C7680,408,7800,376,7920,310.3C8040,245,8160,147,8280,114.3C8400,82,8520,114,8580,130.7L8640,147L8640,490L8580,490C8520,490,8400,490,8280,490C8160,490,8040,490,7920,490C7800,490,7680,490,7560,490C7440,490,7320,490,7200,490C7080,490,6960,490,6840,490C6720,490,6600,490,6480,490C6360,490,6240,490,6120,490C6000,490,5880,490,5760,490C5640,490,5520,490,5400,490C5280,490,5160,490,5040,490C4920,490,4800,490,4680,490C4560,490,4440,490,4320,490C4200,490,4080,490,3960,490C3840,490,3720,490,3600,490C3480,490,3360,490,3240,490C3120,490,3000,490,2880,490C2760,490,2640,490,2520,490C2400,490,2280,490,2160,490C2040,490,1920,490,1800,490C1680,490,1560,490,1440,490C1320,490,1200,490,1080,490C960,490,840,490,720,490C600,490,480,490,360,490C240,490,120,490,60,490L0,490Z"/><defs><linearGradient id="sw-gradient-1" x1="0" x2="0" y1="1" y2="0"><stop stop-color="rgba(119, 82, 254, 0.13)" offset="0%"/><stop stop-color="rgba(119, 82, 254, 0.16)" offset="100%"/></linearGradient></defs><path style="transform:translate(0, 50px); opacity:0.9" fill="url(#sw-gradient-1)" d="M0,147L60,179.7C120,212,240,278,360,261.3C480,245,600,147,720,130.7C840,114,960,180,1080,228.7C1200,278,1320,310,1440,343C1560,376,1680,408,1800,375.7C1920,343,2040,245,2160,245C2280,245,2400,343,2520,383.8C2640,425,2760,408,2880,343C3000,278,3120,163,3240,163.3C3360,163,3480,278,3600,326.7C3720,376,3840,359,3960,343C4080,327,4200,310,4320,277.7C4440,245,4560,196,4680,187.8C4800,180,4920,212,5040,253.2C5160,294,5280,343,5400,375.7C5520,408,5640,425,5760,383.8C5880,343,6000,245,6120,245C6240,245,6360,343,6480,392C6600,441,6720,441,6840,392C6960,343,7080,245,7200,171.5C7320,98,7440,49,7560,24.5C7680,0,7800,0,7920,24.5C8040,49,8160,98,8280,147C8400,196,8520,245,8580,269.5L8640,294L8640,490L8580,490C8520,490,8400,490,8280,490C8160,490,8040,490,7920,490C7800,490,7680,490,7560,490C7440,490,7320,490,7200,490C7080,490,6960,490,6840,490C6720,490,6600,490,6480,490C6360,490,6240,490,6120,490C6000,490,5880,490,5760,490C5640,490,5520,490,5400,490C5280,490,5160,490,5040,490C4920,490,4800,490,4680,490C4560,490,4440,490,4320,490C4200,490,4080,490,3960,490C3840,490,3720,490,3600,490C3480,490,3360,490,3240,490C3120,490,3000,490,2880,490C2760,490,2640,490,2520,490C2400,490,2280,490,2160,490C2040,490,1920,490,1800,490C1680,490,1560,490,1440,490C1320,490,1200,490,1080,490C960,490,840,490,720,490C600,490,480,490,360,490C240,490,120,490,60,490L0,490Z"/><defs><linearGradient id="sw-gradient-2" x1="0" x2="0" y1="1" y2="0"><stop stop-color="rgba(119, 82, 254, 0.49)" offset="0%"/><stop stop-color="rgba(119, 82, 254, 0.16)" offset="100%"/></linearGradient></defs><path style="transform:translate(0, 100px); opacity:0.8" fill="url(#sw-gradient-2)" d="M0,49L60,65.3C120,82,240,114,360,155.2C480,196,600,245,720,294C840,343,960,392,1080,343C1200,294,1320,147,1440,138.8C1560,131,1680,261,1800,326.7C1920,392,2040,392,2160,367.5C2280,343,2400,294,2520,245C2640,196,2760,147,2880,163.3C3000,180,3120,261,3240,269.5C3360,278,3480,212,3600,179.7C3720,147,3840,147,3960,179.7C4080,212,4200,278,4320,326.7C4440,376,4560,408,4680,400.2C4800,392,4920,343,5040,277.7C5160,212,5280,131,5400,106.2C5520,82,5640,114,5760,171.5C5880,229,6000,310,6120,334.8C6240,359,6360,327,6480,302.2C6600,278,6720,261,6840,236.8C6960,212,7080,180,7200,204.2C7320,229,7440,310,7560,302.2C7680,294,7800,196,7920,171.5C8040,147,8160,196,8280,204.2C8400,212,8520,180,8580,163.3L8640,147L8640,490L8580,490C8520,490,8400,490,8280,490C8160,490,8040,490,7920,490C7800,490,7680,490,7560,490C7440,490,7320,490,7200,490C7080,490,6960,490,6840,490C6720,490,6600,490,6480,490C6360,490,6240,490,6120,490C6000,490,5880,490,5760,490C5640,490,5520,490,5400,490C5280,490,5160,490,5040,490C4920,490,4800,490,4680,490C4560,490,4440,490,4320,490C4200,490,4080,490,3960,490C3840,490,3720,490,3600,490C3480,490,3360,490,3240,490C3120,490,3000,490,2880,490C2760,490,2640,490,2520,490C2400,490,2280,490,2160,490C2040,490,1920,490,1800,490C1680,490,1560,490,1440,490C1320,490,1200,490,1080,490C960,490,840,490,720,490C600,490,480,490,360,490C240,490,120,490,60,490L0,490Z"/></svg>